<?xml version="1.0" encoding="UTF-8" standalone="no"?>
<svg width="48px" height="55px" viewBox="0 0 48 55" version="1.1" xmlns="http://www.w3.org/2000/svg" xmlns:xlink="http://www.w3.org/1999/xlink">
    <!-- Generator: Sketch 43.1 (39012) - http://www.bohemiancoding.com/sketch -->
    <title>Combined Shape</title>
    <desc>Created with Sketch.</desc>
    <defs></defs>
    <g id="Icons" stroke="none" stroke-width="1" fill="none" fill-rule="evenodd">
        <g id="48-copy-3" fill="#DB5461">
            <path d="M24,48 C10.745166,48 0,37.254834 0,24 C0,10.745166 10.745166,0 24,0 C37.254834,0 48,10.745166 48,24 C48,37.254834 37.254834,48 24,48 Z M16,16.546875 L18.40625,19.109375 C19.1666705,18.2968709 19.9713499,17.6718772 20.8203125,17.234375 C21.6692751,16.7968728 22.6041616,16.578125 23.625,16.578125 C24.7708391,16.578125 25.6692676,16.8619763 26.3203125,17.4296875 C26.9713574,17.9973987 27.296875,18.7291622 27.296875,19.625 L27.296875,19.6875 C27.296875,20.7500053 26.8229214,21.5911427 25.875,22.2109375 C24.9270786,22.8307323 23.4270936,23.1822912 21.375,23.265625 L21.21875,23.4375 L21.859375,28.609375 L24.453125,28.609375 L24.765625,26.03125 C25.6614628,25.8749992 26.4999961,25.6380224 27.28125,25.3203125 C28.0625039,25.0026026 28.7395805,24.5859401 29.3125,24.0703125 C29.8854195,23.5546849 30.3437483,22.9244829 30.6875,22.1796875 C31.0312517,21.4348921 31.203125,20.562505 31.203125,19.5625 L31.203125,19.5 C31.203125,18.4895783 31.0208352,17.5859415 30.65625,16.7890625 C30.2916648,15.9921835 29.7838574,15.3098987 29.1328125,14.7421875 C28.4817676,14.1744763 27.692713,13.742189 26.765625,13.4453125 C25.838537,13.148436 24.8229222,13 23.71875,13 C21.9895747,13 20.5052145,13.3255176 19.265625,13.9765625 C18.0260355,14.6276074 16.9375047,15.4843697 16,16.546875 Z M20.9375,35.6875 L25.21875,35.6875 L25.21875,31.296875 L20.9375,31.296875 L20.9375,35.6875 Z M7,55 C4.790861,55 3,53.209139 3,51 C3,48.790861 4.790861,47 7,47 C9.209139,47 11,48.790861 11,51 C11,53.209139 9.209139,55 7,55 Z" id="Combined-Shape"></path>
        </g>
    </g>
</svg>