<?xml version="1.0" encoding="UTF-8" standalone="no"?>
<svg width="38px" height="38px" viewBox="0 0 38 38" version="1.1" xmlns="http://www.w3.org/2000/svg" xmlns:xlink="http://www.w3.org/1999/xlink">
    <!-- Generator: Sketch 43.1 (39012) - http://www.bohemiancoding.com/sketch -->
    <title>icon-x</title>
    <desc>Created with Sketch.</desc>
    <defs></defs>
    <g id="Icons" stroke="none" stroke-width="1" fill="none" fill-rule="evenodd">
        <g id="icon-close" transform="translate(-5.000000, -6.000000)" fill="#FFFFFF">
            <path d="M23.7586592,19.6159749 L10.9377111,6.79502684 C10.1401546,5.99747036 8.85026924,5.99562908 8.05582777,6.79007055 L5.61720799,9.22869033 C4.83053485,10.0153635 4.82498553,11.3133949 5.62216428,12.1105737 L18.4431124,24.9315218 L5.62216428,37.7524699 C4.8246078,38.5500263 4.82276652,39.8399117 5.61720799,40.6343532 L8.05582777,43.072973 C8.84250091,43.8596461 10.1405323,43.8651954 10.9377111,43.0680167 L23.7586592,30.2470686 L36.5796073,43.0680167 C37.3771638,43.8655732 38.6670492,43.8674144 39.4614906,43.072973 L41.9001104,40.6343532 C42.6867836,39.8476801 42.6923329,38.5496486 41.8951541,37.7524699 L29.074206,24.9315218 L41.8951541,12.1105737 C42.6927106,11.3130172 42.6945519,10.0231318 41.9001104,9.22869033 L39.4614906,6.79007055 C38.6748175,6.00339741 37.3767861,5.99784809 36.5796073,6.79502684 L23.7586592,19.6159749 Z" id="icon-x"></path>
        </g>
    </g>
</svg>